<svg xmlns="http://www.w3.org/2000/svg" width="24.484" height="24.473" viewBox="0 0 24.484 24.473">
  <g transform="translate(-2104.335 1625.885)">
    <path d="M2129.59-1608.4a5.469,5.469,0,0,0-3.819-1.782,5.455,5.455,0,0,0-3.959,1.44,5.468,5.468,0,0,0-1.782,3.817,5.468,5.468,0,0,0,1.44,3.959,5.468,5.468,0,0,0,3.819,1.782c.083,0,.165.006.247.006a5.464,5.464,0,0,0,3.712-1.446,5.468,5.468,0,0,0,1.783-3.818A5.469,5.469,0,0,0,2129.59-1608.4Zm-1.314,6.716a4.045,4.045,0,0,1-2.924,1.064,4.039,4.039,0,0,1-2.821-1.317h0a4.038,4.038,0,0,1-1.064-2.925,4.038,4.038,0,0,1,1.317-2.82,4.035,4.035,0,0,1,2.742-1.068q.091,0,.182,0a4.041,4.041,0,0,1,2.821,1.316,4.036,4.036,0,0,1,1.064,2.925A4.037,4.037,0,0,1,2128.276-1601.688Z" transform="translate(-12.728 -12.731)" fill="#9a0c19"/>
    <path d="M2118.87-1612.2l.428.208a8.4,8.4,0,0,0,1.967-5.054,8.414,8.414,0,0,0-2.216-6.093,8.48,8.48,0,0,0-11.968-.526,8.481,8.481,0,0,0-.526,11.969,8.418,8.418,0,0,0,5.875,2.742c.128.005.254.008.381.008a8.4,8.4,0,0,0,5.415-1.976l-.237-.428-1.164,1.133,8.843,8.806,3.151-3.151-8.753-8.738Zm-6.373,1.733a6.914,6.914,0,0,1-4.826-2.252,6.966,6.966,0,0,1,.432-9.83,6.929,6.929,0,0,1,4.695-1.823,6.942,6.942,0,0,1,5.134,2.255,6.912,6.912,0,0,1,1.82,5,6.909,6.909,0,0,1-2.251,4.825A6.93,6.93,0,0,1,2112.5-1610.468Zm13.171,6.914-7.379-7.43,1.01-1.009,7.379,7.43Z" fill="#9a0c19"/>
    <path d="M2131.3-1595.548h1.439a1.941,1.941,0,0,1,1.939-1.939v-1.439A3.382,3.382,0,0,0,2131.3-1595.548Z" transform="translate(-21.873 -21.87)" fill="#9a0c19"/>
  </g>
</svg>
